<svg width="117" height="36" viewBox="0 0 117 36" fill="none" xmlns="http://www.w3.org/2000/svg">
<path fill-rule="evenodd" clip-rule="evenodd" d="M23.2934 18.5173C23.3129 17.0053 24.1056 15.6086 25.3938 14.8166C24.5774 13.6507 23.2591 12.9379 21.8365 12.8934C20.3398 12.7363 18.8888 13.789 18.1261 13.789C17.3486 13.789 16.1743 12.909 14.9098 12.935C13.246 12.9888 11.7325 13.9118 10.9231 15.3664C9.19928 18.3509 10.4851 22.737 12.1363 25.1494C12.9625 26.3307 13.928 27.6503 15.1914 27.6035C16.4277 27.5522 16.8894 26.8151 18.3817 26.8151C19.8602 26.8151 20.2934 27.6035 21.5824 27.5737C22.909 27.5522 23.7448 26.3872 24.542 25.1947C25.1355 24.353 25.5923 23.4227 25.8953 22.4383C24.3197 21.7719 23.2952 20.2281 23.2934 18.5173Z" fill="#222222"/>
<path fill-rule="evenodd" clip-rule="evenodd" d="M20.8585 11.307C21.5818 10.4387 21.9382 9.32262 21.8519 8.1958C20.7468 8.31187 19.7261 8.84002 18.993 9.67502C18.2691 10.4989 17.9024 11.5767 17.9736 12.671C19.0935 12.6826 20.1568 12.1798 20.8585 11.307Z" fill="#222222"/>
<path d="M37.3663 12.4344V7.99039H38.6498C39.0027 7.99039 39.2995 8.04119 39.5402 8.1428C39.7808 8.23906 39.976 8.38345 40.1258 8.57598C40.2808 8.76315 40.3905 8.99311 40.4546 9.26585C40.5242 9.53324 40.5589 9.83806 40.5589 10.1803C40.5589 10.5333 40.5215 10.8354 40.4466 11.0868C40.3771 11.3328 40.2862 11.5387 40.1739 11.7045C40.0616 11.8702 39.9332 12.0013 39.7888 12.0975C39.6498 12.1938 39.5081 12.2687 39.3637 12.3221C39.2193 12.3703 39.0829 12.4023 38.9546 12.4184C38.8262 12.4291 38.7193 12.4344 38.6337 12.4344H37.3663ZM36.6042 7.34865V13.0762H38.5695C39.0455 13.0762 39.4573 13.0093 39.8049 12.8756C40.1525 12.7419 40.4386 12.5494 40.6632 12.2981C40.8878 12.0414 41.0536 11.7285 41.1606 11.3595C41.2675 10.9852 41.321 10.5573 41.321 10.076C41.321 9.15622 41.083 8.47169 40.6071 8.02248C40.1311 7.57326 39.4519 7.34865 38.5695 7.34865H36.6042ZM42.7978 11.0066C42.7978 10.7552 42.8299 10.5333 42.8941 10.3408C42.9636 10.1429 43.0572 9.97711 43.1748 9.84341C43.2925 9.70972 43.4289 9.60811 43.5839 9.53858C43.7444 9.46906 43.9128 9.4343 44.0893 9.4343C44.2658 9.4343 44.4316 9.46906 44.5867 9.53858C44.7471 9.60811 44.8861 9.70972 45.0038 9.84341C45.1214 9.97711 45.2124 10.1429 45.2765 10.3408C45.346 10.5333 45.3808 10.7552 45.3808 11.0066C45.3808 11.2579 45.346 11.4825 45.2765 11.6804C45.2124 11.8729 45.1214 12.036 45.0038 12.1697C44.8861 12.2981 44.7471 12.397 44.5867 12.4665C44.4316 12.536 44.2658 12.5708 44.0893 12.5708C43.9128 12.5708 43.7444 12.536 43.5839 12.4665C43.4289 12.397 43.2925 12.2981 43.1748 12.1697C43.0572 12.036 42.9636 11.8729 42.8941 11.6804C42.8299 11.4825 42.7978 11.2579 42.7978 11.0066ZM42.0759 11.0066C42.0759 11.3114 42.1186 11.5948 42.2042 11.8569C42.2898 12.1189 42.4181 12.3489 42.5892 12.5467C42.7604 12.7393 42.9716 12.8917 43.223 13.004C43.4743 13.1109 43.7631 13.1644 44.0893 13.1644C44.4209 13.1644 44.7097 13.1109 44.9557 13.004C45.207 12.8917 45.4182 12.7393 45.5894 12.5467C45.7605 12.3489 45.8889 12.1189 45.9744 11.8569C46.06 11.5948 46.1028 11.3114 46.1028 11.0066C46.1028 10.7017 46.06 10.4183 45.9744 10.1563C45.8889 9.88887 45.7605 9.65891 45.5894 9.46639C45.4182 9.26852 45.207 9.11343 44.9557 9.00113C44.7097 8.88882 44.4209 8.83267 44.0893 8.83267C43.7631 8.83267 43.4743 8.88882 43.223 9.00113C42.9716 9.11343 42.7604 9.26852 42.5892 9.46639C42.4181 9.65891 42.2898 9.88887 42.2042 10.1563C42.1186 10.4183 42.0759 10.7017 42.0759 11.0066ZM51.1743 13.0762L52.4978 8.92893H51.7919L50.8614 12.3221H50.8454L49.979 8.92893H49.233L48.3987 12.3221H48.3827L47.4442 8.92893H46.6901L48.0217 13.0762H48.7597L49.594 9.77924H49.61L50.4523 13.0762H51.1743ZM53.3065 8.92893V13.0762H53.9884V10.7338C53.9884 10.5466 54.0125 10.3755 54.0606 10.2204C54.1141 10.06 54.1916 9.92095 54.2932 9.8033C54.3948 9.68565 54.5205 9.59474 54.6702 9.53056C54.8253 9.46639 55.0071 9.4343 55.2157 9.4343C55.4778 9.4343 55.6836 9.50917 55.8334 9.65891C55.9831 9.80865 56.058 10.0119 56.058 10.2686V13.0762H56.7398V10.3488C56.7398 10.1242 56.7158 9.92095 56.6676 9.73913C56.6249 9.55195 56.5473 9.39152 56.435 9.25782C56.3227 9.12413 56.1756 9.01985 55.9938 8.94498C55.812 8.87011 55.5847 8.83267 55.312 8.83267C54.697 8.83267 54.2478 9.08402 53.9643 9.58672H53.9483V8.92893H53.3065ZM57.9645 7.34865V13.0762H58.6463V7.34865H57.9645ZM60.3604 11.0066C60.3604 10.7552 60.3925 10.5333 60.4567 10.3408C60.5262 10.1429 60.6198 9.97711 60.7374 9.84341C60.8551 9.70972 60.9914 9.60811 61.1465 9.53858C61.307 9.46906 61.4754 9.4343 61.6519 9.4343C61.8284 9.4343 61.9942 9.46906 62.1493 9.53858C62.3097 9.60811 62.4487 9.70972 62.5664 9.84341C62.684 9.97711 62.7749 10.1429 62.8391 10.3408C62.9086 10.5333 62.9434 10.7552 62.9434 11.0066C62.9434 11.2579 62.9086 11.4825 62.8391 11.6804C62.7749 11.8729 62.684 12.036 62.5664 12.1697C62.4487 12.2981 62.3097 12.397 62.1493 12.4665C61.9942 12.536 61.8284 12.5708 61.6519 12.5708C61.4754 12.5708 61.307 12.536 61.1465 12.4665C60.9914 12.397 60.8551 12.2981 60.7374 12.1697C60.6198 12.036 60.5262 11.8729 60.4567 11.6804C60.3925 11.4825 60.3604 11.2579 60.3604 11.0066ZM59.6384 11.0066C59.6384 11.3114 59.6812 11.5948 59.7668 11.8569C59.8524 12.1189 59.9807 12.3489 60.1518 12.5467C60.323 12.7393 60.5342 12.8917 60.7856 13.004C61.0369 13.1109 61.3257 13.1644 61.6519 13.1644C61.9835 13.1644 62.2723 13.1109 62.5183 13.004C62.7696 12.8917 62.9808 12.7393 63.152 12.5467C63.3231 12.3489 63.4514 12.1189 63.537 11.8569C63.6226 11.5948 63.6654 11.3114 63.6654 11.0066C63.6654 10.7017 63.6226 10.4183 63.537 10.1563C63.4514 9.88887 63.3231 9.65891 63.152 9.46639C62.9808 9.26852 62.7696 9.11343 62.5183 9.00113C62.2723 8.88882 61.9835 8.83267 61.6519 8.83267C61.3257 8.83267 61.0369 8.88882 60.7856 9.00113C60.5342 9.11343 60.323 9.26852 60.1518 9.46639C59.9807 9.65891 59.8524 9.88887 59.7668 10.1563C59.6812 10.4183 59.6384 10.7017 59.6384 11.0066ZM68.3037 13.0601C68.186 13.1297 68.0229 13.1644 67.8144 13.1644C67.6379 13.1644 67.4962 13.1163 67.3892 13.02C67.2876 12.9184 67.2368 12.7553 67.2368 12.5307C67.0496 12.7553 66.8304 12.9184 66.579 13.02C66.333 13.1163 66.0656 13.1644 65.7768 13.1644C65.5897 13.1644 65.4105 13.143 65.2394 13.1002C65.0736 13.0575 64.9292 12.9906 64.8062 12.8997C64.6832 12.8088 64.5843 12.6911 64.5094 12.5467C64.4399 12.397 64.4051 12.2178 64.4051 12.0093C64.4051 11.774 64.4452 11.5815 64.5254 11.4317C64.6057 11.282 64.7099 11.1617 64.8383 11.0707C64.972 10.9745 65.1217 10.9023 65.2875 10.8542C65.4586 10.806 65.6324 10.7659 65.8089 10.7338C65.9961 10.6964 66.1726 10.6696 66.3384 10.6536C66.5095 10.6322 66.6592 10.6055 66.7876 10.5734C66.9159 10.536 67.0175 10.4852 67.0924 10.421C67.1673 10.3515 67.2047 10.2525 67.2047 10.1242C67.2047 9.97443 67.1753 9.85411 67.1165 9.76319C67.063 9.67228 66.9908 9.60276 66.8999 9.55463C66.8143 9.5065 66.7154 9.47441 66.6031 9.45837C66.4961 9.44232 66.3892 9.4343 66.2822 9.4343C65.9934 9.4343 65.7528 9.49045 65.5602 9.60276C65.3677 9.70972 65.2634 9.91561 65.2474 10.2204H64.5656C64.5762 9.96374 64.6297 9.74715 64.726 9.57067C64.8222 9.39419 64.9506 9.25248 65.111 9.14552C65.2715 9.03322 65.4533 8.953 65.6565 8.90487C65.8651 8.85674 66.087 8.83267 66.3223 8.83267C66.5095 8.83267 66.694 8.84604 66.8758 8.87278C67.063 8.89952 67.2314 8.95567 67.3812 9.04124C67.5309 9.12145 67.6512 9.23643 67.7422 9.38617C67.8331 9.53591 67.8785 9.73111 67.8785 9.97176V12.1055C67.8785 12.266 67.8866 12.3836 67.9026 12.4585C67.924 12.5334 67.9882 12.5708 68.0951 12.5708C68.1539 12.5708 68.2235 12.5574 68.3037 12.5307V13.0601ZM67.1967 10.9344C67.1111 10.9985 66.9988 11.0467 66.8598 11.0788C66.7207 11.1055 66.5737 11.1296 66.4186 11.151C66.2688 11.167 66.1164 11.1884 65.9613 11.2151C65.8062 11.2365 65.6672 11.274 65.5442 11.3274C65.4212 11.3809 65.3196 11.4585 65.2394 11.5601C65.1645 11.6563 65.1271 11.79 65.1271 11.9612C65.1271 12.0735 65.1485 12.1697 65.1912 12.2499C65.2394 12.3248 65.2982 12.3863 65.3677 12.4344C65.4426 12.4826 65.5282 12.5173 65.6244 12.5387C65.7207 12.5601 65.8223 12.5708 65.9292 12.5708C66.1539 12.5708 66.3464 12.5414 66.5068 12.4826C66.6672 12.4184 66.7983 12.3408 66.8999 12.2499C67.0015 12.1537 67.0764 12.0521 67.1245 11.9451C67.1726 11.8328 67.1967 11.7285 67.1967 11.6323V10.9344ZM69.5961 11.0387C69.5961 10.8354 69.6174 10.6376 69.6602 10.445C69.703 10.2525 69.7725 10.0814 69.8688 9.93165C69.9651 9.78191 70.0934 9.66158 70.2538 9.57067C70.4143 9.47976 70.6095 9.4343 70.8394 9.4343C71.0747 9.4343 71.2753 9.47976 71.4411 9.57067C71.6068 9.65624 71.7405 9.77122 71.8421 9.91561C71.9491 10.06 72.0266 10.2285 72.0748 10.421C72.1229 10.6082 72.147 10.8033 72.147 11.0066C72.147 11.1991 72.1229 11.3889 72.0748 11.5761C72.032 11.7633 71.9598 11.9317 71.8582 12.0815C71.7566 12.2259 71.6256 12.3435 71.4651 12.4344C71.3047 12.5253 71.1095 12.5708 70.8795 12.5708C70.6603 12.5708 70.4678 12.528 70.302 12.4425C70.1415 12.3569 70.0078 12.2419 69.9009 12.0975C69.7993 11.9531 69.7217 11.79 69.6683 11.6082C69.6201 11.421 69.5961 11.2312 69.5961 11.0387ZM72.8048 13.0762V7.34865H72.1229V9.48243H72.1069C72.032 9.35943 71.9384 9.25782 71.8261 9.17761C71.7191 9.09204 71.6042 9.02519 71.4812 8.97706C71.3582 8.92358 71.2352 8.88615 71.1122 8.86476C70.9892 8.84337 70.8742 8.83267 70.7672 8.83267C70.4517 8.83267 70.1736 8.8915 69.933 9.00915C69.6977 9.12145 69.4998 9.27654 69.3394 9.47441C69.1843 9.66693 69.0666 9.89422 68.9864 10.1563C68.9115 10.4183 68.8741 10.6964 68.8741 10.9905C68.8741 11.2847 68.9142 11.5627 68.9944 11.8248C69.0746 12.0868 69.1923 12.3168 69.3474 12.5147C69.5078 12.7125 69.7057 12.8703 69.941 12.9879C70.1816 13.1056 70.4624 13.1644 70.7833 13.1644C71.0721 13.1644 71.3368 13.1136 71.5774 13.012C71.8181 12.9104 71.9946 12.7446 72.1069 12.5147H72.1229V13.0762H72.8048ZM76.9046 11.0066C76.9046 10.7552 76.9367 10.5333 77.0009 10.3408C77.0704 10.1429 77.164 9.97711 77.2816 9.84341C77.3993 9.70972 77.5357 9.60811 77.6907 9.53858C77.8512 9.46906 78.0196 9.4343 78.1961 9.4343C78.3726 9.4343 78.5384 9.46906 78.6935 9.53858C78.8539 9.60811 78.9929 9.70972 79.1106 9.84341C79.2282 9.97711 79.3192 10.1429 79.3833 10.3408C79.4529 10.5333 79.4876 10.7552 79.4876 11.0066C79.4876 11.2579 79.4529 11.4825 79.3833 11.6804C79.3192 11.8729 79.2282 12.036 79.1106 12.1697C78.9929 12.2981 78.8539 12.397 78.6935 12.4665C78.5384 12.536 78.3726 12.5708 78.1961 12.5708C78.0196 12.5708 77.8512 12.536 77.6907 12.4665C77.5357 12.397 77.3993 12.2981 77.2816 12.1697C77.164 12.036 77.0704 11.8729 77.0009 11.6804C76.9367 11.4825 76.9046 11.2579 76.9046 11.0066ZM76.1827 11.0066C76.1827 11.3114 76.2254 11.5948 76.311 11.8569C76.3966 12.1189 76.5249 12.3489 76.696 12.5467C76.8672 12.7393 77.0784 12.8917 77.3298 13.004C77.5811 13.1109 77.8699 13.1644 78.1961 13.1644C78.5277 13.1644 78.8165 13.1109 79.0625 13.004C79.3138 12.8917 79.525 12.7393 79.6962 12.5467C79.8673 12.3489 79.9957 12.1189 80.0812 11.8569C80.1668 11.5948 80.2096 11.3114 80.2096 11.0066C80.2096 10.7017 80.1668 10.4183 80.0812 10.1563C79.9957 9.88887 79.8673 9.65891 79.6962 9.46639C79.525 9.26852 79.3138 9.11343 79.0625 9.00113C78.8165 8.88882 78.5277 8.83267 78.1961 8.83267C77.8699 8.83267 77.5811 8.88882 77.3298 9.00113C77.0784 9.11343 76.8672 9.26852 76.696 9.46639C76.5249 9.65891 76.3966 9.88887 76.311 10.1563C76.2254 10.4183 76.1827 10.7017 76.1827 11.0066ZM81.1739 8.92893V13.0762H81.8558V10.7338C81.8558 10.5466 81.8798 10.3755 81.928 10.2204C81.9815 10.06 82.059 9.92095 82.1606 9.8033C82.2622 9.68565 82.3879 9.59474 82.5376 9.53056C82.6927 9.46639 82.8745 9.4343 83.0831 9.4343C83.3452 9.4343 83.551 9.50917 83.7008 9.65891C83.8505 9.80865 83.9254 10.0119 83.9254 10.2686V13.0762H84.6072V10.3488C84.6072 10.1242 84.5832 9.92095 84.535 9.73913C84.4923 9.55195 84.4147 9.39152 84.3024 9.25782C84.1901 9.12413 84.043 9.01985 83.8612 8.94498C83.6794 8.87011 83.4521 8.83267 83.1794 8.83267C82.5644 8.83267 82.1152 9.08402 81.8317 9.58672H81.8157V8.92893H81.1739ZM89.1314 8.92893V7.68556H88.4495V8.92893H87.7436V9.53056H88.4495V12.1697C88.4495 12.3622 88.4682 12.5173 88.5057 12.635C88.5431 12.7526 88.5993 12.8435 88.6741 12.9077C88.7544 12.9719 88.856 13.0173 88.979 13.0441C89.1073 13.0655 89.2597 13.0762 89.4362 13.0762H89.9576V12.4745H89.6448C89.5378 12.4745 89.4496 12.4719 89.38 12.4665C89.3159 12.4558 89.2651 12.4371 89.2276 12.4104C89.1902 12.3836 89.1635 12.3462 89.1474 12.2981C89.1367 12.2499 89.1314 12.1858 89.1314 12.1055V9.53056H89.9576V8.92893H89.1314ZM90.8755 7.34865V13.0762H91.5574V10.7338C91.5574 10.5466 91.5815 10.3755 91.6296 10.2204C91.6831 10.06 91.7606 9.92095 91.8622 9.8033C91.9638 9.68565 92.0895 9.59474 92.2392 9.53056C92.3943 9.46639 92.5761 9.4343 92.7847 9.4343C93.0468 9.4343 93.2526 9.50917 93.4024 9.65891C93.5521 9.80865 93.627 10.0119 93.627 10.2686V13.0762H94.3088V10.3488C94.3088 10.1242 94.2848 9.92095 94.2366 9.73913C94.1939 9.55195 94.1163 9.39152 94.004 9.25782C93.8917 9.12413 93.7446 9.01985 93.5628 8.94498C93.381 8.87011 93.1537 8.83267 92.881 8.83267C92.758 8.83267 92.6296 8.84604 92.4959 8.87278C92.3676 8.89952 92.2419 8.9423 92.1189 9.00113C92.0013 9.05461 91.8943 9.1268 91.798 9.21772C91.7018 9.30328 91.6269 9.41024 91.5734 9.53858H91.5574V7.34865H90.8755ZM98.3732 10.6055H95.9907C96.0014 10.445 96.0362 10.2953 96.095 10.1563C96.1538 10.0119 96.234 9.88619 96.3356 9.77924C96.4373 9.67228 96.5576 9.58939 96.6966 9.53056C96.841 9.46639 97.0015 9.4343 97.1779 9.4343C97.3491 9.4343 97.5041 9.46639 97.6432 9.53056C97.7876 9.58939 97.9106 9.67228 98.0122 9.77924C98.1191 9.88085 98.202 10.0038 98.2609 10.1482C98.325 10.2926 98.3625 10.445 98.3732 10.6055ZM99.031 11.7606H98.3571C98.2983 12.0333 98.1753 12.2366 97.9881 12.3703C97.8063 12.504 97.571 12.5708 97.2822 12.5708C97.0576 12.5708 96.8624 12.5334 96.6966 12.4585C96.5308 12.3836 96.3945 12.2847 96.2875 12.1617C96.1806 12.0333 96.103 11.889 96.0549 11.7285C96.0068 11.5627 95.9854 11.3889 95.9907 11.2071H99.0951C99.1058 10.9558 99.0818 10.691 99.0229 10.413C98.9695 10.1349 98.8678 9.87817 98.7181 9.64287C98.5737 9.40756 98.3785 9.21504 98.1325 9.0653C97.8919 8.91022 97.587 8.83267 97.218 8.83267C96.9346 8.83267 96.6726 8.88615 96.4319 8.99311C96.1966 9.10006 95.9907 9.2498 95.8142 9.44232C95.6431 9.63485 95.5094 9.86213 95.4131 10.1242C95.3169 10.3862 95.2688 10.675 95.2688 10.9905C95.2795 11.306 95.3249 11.5975 95.4051 11.8649C95.4907 12.1323 95.6164 12.3622 95.7821 12.5548C95.9479 12.7473 96.1511 12.897 96.3918 13.004C96.6378 13.1109 96.9266 13.1644 97.2581 13.1644C97.7288 13.1644 98.1191 13.0468 98.4293 12.8115C98.7395 12.5762 98.94 12.2259 99.031 11.7606Z" fill="#222222"/>
<path d="M51.0593 19.7618C53.1074 19.7618 54.4574 21.3808 54.4574 23.8815C54.4574 26.3892 53.1152 28.0003 51.0898 28.0003C50.0428 28.055 49.0567 27.5067 48.5508 26.5885H48.5125V30.5854H46.8561V19.8462H48.4594V21.1884H48.4899C49.0182 20.2759 50.0054 19.7278 51.0593 19.7618ZM59.941 19.7618C61.9891 19.7618 63.3391 21.3808 63.3391 23.8815C63.3391 26.3892 61.9969 28.0003 59.9715 28.0003C58.9245 28.055 57.9384 27.5067 57.4325 26.5885H57.3942V30.5854H55.7378V19.8462H57.3411V21.1884H57.3715C57.8999 20.2759 58.8871 19.7278 59.941 19.7618ZM71.8326 16.6631C74.1714 16.6631 75.7747 17.9748 75.8287 19.8845H74.1566C74.0565 18.7799 73.1435 18.1132 71.8091 18.1132C70.4748 18.1132 69.5617 18.7878 69.5617 19.7696C69.5617 20.5521 70.1449 21.0126 71.5715 21.365L72.7909 21.6645C75.0618 22.2015 76.0054 23.1137 76.0054 24.7327C76.0054 26.8034 74.3559 28.1003 71.7325 28.1003C69.2779 28.1003 67.6207 26.8338 67.5136 24.8319L69.2092 24.832C69.3319 25.9296 70.3982 26.6502 71.8553 26.6502C73.2514 26.6502 74.2559 25.9295 74.2559 24.9399C74.2559 24.0808 73.65 23.5664 72.2156 23.2138L70.7812 22.8683C68.7488 22.3774 67.8052 21.4269 67.8052 19.8845C67.8052 17.9748 69.4695 16.6631 71.8326 16.6631ZM85.8307 19.747C88.1703 19.747 89.6587 21.3425 89.6587 23.8815C89.6587 26.4275 88.1782 28.016 85.8307 28.016C83.484 28.016 82.0034 26.4274 82.0034 23.8815C82.0034 21.3425 83.4988 19.747 85.8307 19.747ZM99.2437 19.747C101.476 19.747 102.88 21.2807 102.88 23.7274V24.2949H97.1808V24.395C97.1276 24.9958 97.3351 25.5905 97.7504 26.0278C98.1658 26.4651 98.7489 26.7029 99.3517 26.6807C100.155 26.756 100.913 26.2945 101.215 25.5457L102.788 25.5457C102.565 27.0106 101.139 28.0159 99.3134 28.0159C96.9658 28.0159 95.5088 26.4431 95.5088 23.9198C95.5088 21.3886 96.9737 19.747 99.2437 19.747ZM79.5802 17.9365V19.8462H81.1147V21.158H79.5802V25.6066C79.5802 26.2977 79.8874 26.6198 80.562 26.6198C80.7442 26.6166 80.9261 26.6038 81.1069 26.5815V27.8854C80.8036 27.942 80.4953 27.9677 80.1869 27.962C78.5531 27.962 77.9159 27.3483 77.9159 25.7833V21.158H76.7426V19.8462H77.9159V17.9365H79.5802ZM41.8312 16.8476L45.8273 27.9159H44.0098L42.9975 24.9242H38.7786L37.7655 27.9159H35.9785L39.9746 16.8476H41.8312ZM94.5835 19.7618C94.7744 19.7611 94.9648 19.7819 95.1511 19.8236V21.3729C94.9101 21.2993 94.6587 21.2655 94.4068 21.2728C93.9199 21.2531 93.4486 21.4472 93.1167 21.8041C92.7849 22.161 92.6256 22.6452 92.6808 23.1294V27.9158H91.0244V19.8462H92.6042V21.2197H92.6425C92.8628 20.3356 93.673 19.727 94.5835 19.7618ZM85.8307 21.1118C84.4885 21.1118 83.6912 22.1476 83.6912 23.8815C83.6912 25.6301 84.4885 26.6503 85.8307 26.6503C87.1728 26.6503 87.971 25.6301 87.971 23.8815C87.971 22.1398 87.1728 21.1118 85.8307 21.1118ZM50.6224 21.1736C49.3568 21.1736 48.5055 22.2703 48.5055 23.8815C48.5055 25.5074 49.3568 26.5963 50.6224 26.5963C51.9106 26.5963 52.7549 25.53 52.7549 23.8815C52.7549 22.2477 51.9106 21.1736 50.6224 21.1736ZM59.5041 21.1736C58.2385 21.1736 57.3872 22.2703 57.3872 23.8815C57.3872 25.5074 58.2385 26.5963 59.5041 26.5963C60.7923 26.5963 61.6366 25.53 61.6366 23.8815C61.6366 22.2477 60.7923 21.1736 59.5041 21.1736ZM40.9112 18.6886H40.8651L39.2156 23.5438H42.5598L40.9112 18.6886ZM99.2437 21.0892C98.6989 21.0859 98.1754 21.3004 97.7895 21.685C97.4035 22.0696 97.1873 22.5925 97.1887 23.1373H101.223C101.253 22.5974 101.057 22.0695 100.681 21.6808C100.305 21.292 99.7843 21.0776 99.2437 21.0892Z" fill="#222222"/>
<rect x="0.706394" y="0.445652" width="114.978" height="34.7609" rx="4.90217" stroke="#222222" stroke-width="0.891304"/>
</svg>
