<svg width="116" height="36" viewBox="0 0 116 36" fill="none" xmlns="http://www.w3.org/2000/svg">
<path fill-rule="evenodd" clip-rule="evenodd" d="M8.60417 6.9006C8.3448 7.17512 8.19238 7.60027 8.19238 8.15199V27.848C8.19238 28.3998 8.3448 28.8249 8.60417 29.0994L8.67012 29.1636L19.7036 18.1301V17.8699L8.67012 6.83643L8.60417 6.9006Z" fill="#00D7FE"/>
<mask id="mask0_1691_110785" style="mask-type:alpha" maskUnits="userSpaceOnUse" x="19" y="14" width="10" height="8">
<path d="M23.3798 21.8099L19.7031 18.1306V17.8703L23.3815 14.1919L27.822 16.7143C29.0663 17.422 29.0663 18.5789 27.822 19.2857L23.4644 21.7617L23.3798 21.8099Z" fill="white"/>
</mask>
<g mask="url(#mask0_1691_110785)">
<path fill-rule="evenodd" clip-rule="evenodd" d="M23.3798 21.8099L19.7031 18.1306V17.8703L23.3815 14.1919L27.822 16.7143C29.0663 17.422 29.0663 18.5789 27.822 19.2857L23.4644 21.7617L23.3798 21.8099Z" fill="url(#paint0_linear_1691_110785)"/>
</g>
<mask id="mask1_1691_110785" style="mask-type:alpha" maskUnits="userSpaceOnUse" x="8" y="18" width="16" height="12">
<path d="M23.4642 21.7613L19.7029 18L8.60352 29.0994C9.01441 29.5335 9.6918 29.587 10.4548 29.1538L23.4642 21.7613Z" fill="white"/>
</mask>
<g mask="url(#mask1_1691_110785)">
<path fill-rule="evenodd" clip-rule="evenodd" d="M23.4642 21.7613L19.7029 18L8.60352 29.0994C9.01441 29.5335 9.6918 29.587 10.4548 29.1538L23.4642 21.7613Z" fill="url(#paint1_linear_1691_110785)"/>
</g>
<mask id="mask2_1691_110785" style="mask-type:alpha" maskUnits="userSpaceOnUse" x="8" y="6" width="16" height="13">
<path d="M23.4642 14.2391L10.4548 6.84665C9.6918 6.41347 9.01441 6.46695 8.60352 6.90102L19.7029 18.0004L23.4642 14.2391Z" fill="white"/>
</mask>
<g mask="url(#mask2_1691_110785)">
<path fill-rule="evenodd" clip-rule="evenodd" d="M23.4642 14.2391L10.4548 6.84665C9.6918 6.41347 9.01441 6.46695 8.60352 6.90102L19.7029 18.0004L23.4642 14.2391Z" fill="url(#paint2_linear_1691_110785)"/>
</g>
<path fill-rule="evenodd" clip-rule="evenodd" d="M92.797 27.7624H94.4602V16.6202H92.797V27.7624ZM107.777 20.6337L105.871 25.4646H105.814L103.835 20.6337H102.043L105.011 27.3853L103.319 31.1413H105.054L109.627 20.6337H107.777ZM98.3454 26.4967C97.7999 26.4967 97.0405 26.2249 97.0405 25.551C97.0405 24.6909 97.9871 24.3611 98.8035 24.3611C99.5353 24.3611 99.8784 24.5189 100.323 24.7337C100.194 25.7658 99.3054 26.4967 98.3454 26.4967ZM98.546 20.3904C97.3418 20.3904 96.0949 20.9207 95.5788 22.0963L97.0548 22.7122C97.3703 22.0963 97.9577 21.8949 98.5745 21.8949C99.4346 21.8949 100.309 22.411 100.323 23.329V23.4431C100.022 23.2711 99.3775 23.0135 98.5887 23.0135C96.9978 23.0135 95.3774 23.8878 95.3774 25.5216C95.3774 27.0128 96.6822 27.9736 98.144 27.9736C99.2626 27.9736 99.8785 27.4718 100.266 26.8835H100.323V27.7436H101.928V23.4725C101.928 21.4938 100.452 20.3904 98.546 20.3904ZM88.2674 21.9903H85.9019V18.171H88.2674C89.5108 18.171 90.2167 19.2005 90.2167 20.0802C90.2167 20.9439 89.5108 21.9903 88.2674 21.9903ZM88.2246 16.6202H84.2396V27.7624H85.9019V23.5411H88.2246C90.0679 23.5411 91.8799 22.206 91.8799 20.0802C91.8799 17.9544 90.0679 16.6202 88.2246 16.6202ZM66.4938 26.4985C65.3449 26.4985 64.3831 25.5368 64.3831 24.2159C64.3831 22.8807 65.3449 21.9038 66.4938 21.9038C67.6284 21.9038 68.5179 22.8807 68.5179 24.2159C68.5179 25.5368 67.6284 26.4985 66.4938 26.4985ZM68.4029 21.2576H68.3459C67.9724 20.8129 67.2549 20.4109 66.3503 20.4109C64.4545 20.4109 62.7173 22.0758 62.7173 24.2159C62.7173 26.3407 64.4545 27.9923 66.3503 27.9923C67.2549 27.9923 67.9724 27.5903 68.3459 27.1304H68.4029V27.6759C68.4029 29.1269 67.6284 29.9024 66.3788 29.9024C65.3591 29.9024 64.7272 29.1697 64.4687 28.552L63.0186 29.1555C63.4348 30.1609 64.5409 31.3953 66.3788 31.3953C68.3316 31.3953 69.9832 30.2464 69.9832 27.4468V20.6399H68.4029V21.2576ZM71.1321 27.7624H72.798V16.6193H71.1321V27.7624ZM75.2526 24.0866C75.2098 22.6222 76.3872 21.8753 77.234 21.8753C77.8953 21.8753 78.4551 22.2051 78.6413 22.6792L75.2526 24.0866ZM80.4222 22.8227C80.1066 21.976 79.144 20.4109 77.1769 20.4109C75.2241 20.4109 73.6019 21.9466 73.6019 24.2016C73.6019 26.3265 75.2098 27.9923 77.3632 27.9923C79.1013 27.9923 80.1066 26.9299 80.5229 26.3122L79.2305 25.4503C78.8 26.0822 78.2108 26.4985 77.3632 26.4985C76.5165 26.4985 75.9131 26.1108 75.5253 25.3505L80.5942 23.2541L80.4222 22.8227ZM40.039 21.574V23.1819H43.8867C43.7717 24.0866 43.4705 24.7471 43.0115 25.207C42.4508 25.7667 41.5747 26.3835 40.039 26.3835C37.6699 26.3835 35.8168 24.4743 35.8168 22.1052C35.8168 19.7353 37.6699 17.8261 40.039 17.8261C41.3171 17.8261 42.2503 18.3288 42.9393 18.975L44.0739 17.8404C43.1113 16.9214 41.834 16.2173 40.039 16.2173C36.7937 16.2173 34.0654 18.86 34.0654 22.1052C34.0654 25.3505 36.7937 27.9923 40.039 27.9923C41.7904 27.9923 43.1113 27.4183 44.1452 26.3407C45.2076 25.2783 45.5383 23.7853 45.5383 22.5785C45.5383 22.2051 45.5098 21.861 45.4518 21.574H40.039ZM49.9137 26.4985C48.7648 26.4985 47.7737 25.551 47.7737 24.2016C47.7737 22.837 48.7648 21.9038 49.9137 21.9038C51.0617 21.9038 52.0528 22.837 52.0528 24.2016C52.0528 25.551 51.0617 26.4985 49.9137 26.4985ZM49.9137 20.4109C47.8165 20.4109 46.1078 22.0045 46.1078 24.2016C46.1078 26.3835 47.8165 27.9923 49.9137 27.9923C52.0101 27.9923 53.7187 26.3835 53.7187 24.2016C53.7187 22.0045 52.0101 20.4109 49.9137 20.4109ZM58.2144 26.4985C57.0655 26.4985 56.0744 25.551 56.0744 24.2016C56.0744 22.837 57.0655 21.9038 58.2144 21.9038C59.3633 21.9038 60.3536 22.837 60.3536 24.2016C60.3536 25.551 59.3633 26.4985 58.2144 26.4985ZM58.2144 20.4109C56.1181 20.4109 54.4095 22.0045 54.4095 24.2016C54.4095 26.3835 56.1181 27.9923 58.2144 27.9923C60.3108 27.9923 62.0194 26.3835 62.0194 24.2016C62.0194 22.0045 60.3108 20.4109 58.2144 20.4109Z" fill="#222222"/>
<path d="M38.9419 8.79064V10.8783C38.8714 10.9828 38.7591 11.1003 38.6051 11.2309C38.451 11.3588 38.2382 11.4711 37.9666 11.5677C37.6977 11.6617 37.3504 11.7087 36.9247 11.7087C36.5774 11.7087 36.2576 11.6486 35.9651 11.5285C35.6753 11.4058 35.4233 11.2282 35.2092 10.9958C34.9976 10.7608 34.8331 10.4762 34.7156 10.142C34.6007 9.80511 34.5433 9.42387 34.5433 8.99824V8.55563C34.5433 8.13 34.5929 7.75006 34.6921 7.41582C34.794 7.08159 34.9428 6.79827 35.1387 6.56586C35.3345 6.33085 35.5747 6.15329 35.8594 6.03317C36.144 5.91044 36.4704 5.84908 36.8386 5.84908C37.2746 5.84908 37.6389 5.9248 37.9314 6.07626C38.2264 6.2251 38.4562 6.43139 38.6207 6.69512C38.7879 6.95886 38.8949 7.25915 38.9419 7.596H38.186C38.152 7.38971 38.0841 7.2017 37.9823 7.03197C37.8831 6.86224 37.7408 6.72646 37.5554 6.62462C37.37 6.52017 37.131 6.46794 36.8386 6.46794C36.5748 6.46794 36.3464 6.51625 36.1531 6.61287C35.9599 6.70948 35.8006 6.84788 35.6753 7.02806C35.5499 7.20823 35.4559 7.42627 35.3932 7.68217C35.3332 7.93807 35.3032 8.22662 35.3032 8.5478V8.99824C35.3032 9.32725 35.341 9.62102 35.4167 9.87953C35.4951 10.138 35.6061 10.3587 35.7497 10.5415C35.8933 10.7217 36.0643 10.8587 36.2628 10.9528C36.4639 11.0468 36.6858 11.0938 36.9287 11.0938C37.1976 11.0938 37.4157 11.0716 37.5828 11.0272C37.7499 10.9802 37.8805 10.9253 37.9745 10.8627C38.0685 10.7974 38.1403 10.736 38.1899 10.6786V9.40168H36.8699V8.79064H38.9419ZM43.5778 11.0154V11.6304H40.5579V11.0154H43.5778ZM40.7106 5.92742V11.6304H39.9547V5.92742H40.7106ZM43.1783 8.37937V8.99432H40.5579V8.37937H43.1783ZM43.5386 5.92742V6.54628H40.5579V5.92742H43.5386ZM46.4589 5.92742V11.6304H45.7147V5.92742H46.4589ZM48.292 5.92742V6.54628H43.8855V5.92742H48.292ZM51.3006 5.92742V11.6304H50.5446V5.92742H51.3006ZM54.4245 5.92742V11.6304H53.6803V5.92742H54.4245ZM56.2576 5.92742V6.54628H51.8511V5.92742H56.2576ZM62.8462 8.59872V8.95907C62.8462 9.38731 62.7927 9.77117 62.6856 10.1106C62.5786 10.4501 62.4245 10.7386 62.2235 10.9763C62.0224 11.2139 61.7809 11.3954 61.4988 11.5207C61.2194 11.646 60.9061 11.7087 60.5588 11.7087C60.2219 11.7087 59.9125 11.646 59.6305 11.5207C59.3511 11.3954 59.1082 11.2139 58.902 10.9763C58.6983 10.7386 58.5403 10.4501 58.428 10.1106C58.3157 9.77117 58.2596 9.38731 58.2596 8.95907V8.59872C58.2596 8.17047 58.3144 7.78793 58.4241 7.45108C58.5364 7.11161 58.6944 6.82307 58.898 6.58545C59.1017 6.34521 59.3433 6.16243 59.6227 6.03709C59.9047 5.91175 60.2141 5.84908 60.551 5.84908C60.8983 5.84908 61.2116 5.91175 61.491 6.03709C61.773 6.16243 62.0146 6.34521 62.2156 6.58545C62.4193 6.82307 62.5747 7.11161 62.6817 7.45108C62.7914 7.78793 62.8462 8.17047 62.8462 8.59872ZM62.0981 8.95907V8.59088C62.0981 8.25142 62.0629 7.95113 61.9924 7.69001C61.9245 7.42888 61.8239 7.20954 61.6908 7.03197C61.5576 6.85441 61.3944 6.71993 61.2012 6.62853C61.0105 6.53714 60.7938 6.49144 60.551 6.49144C60.3159 6.49144 60.1031 6.53714 59.9125 6.62853C59.7245 6.71993 59.5626 6.85441 59.4268 7.03197C59.2936 7.20954 59.1905 7.42888 59.1174 7.69001C59.0443 7.95113 59.0077 8.25142 59.0077 8.59088V8.95907C59.0077 9.30114 59.0443 9.60405 59.1174 9.86778C59.1905 10.1289 59.2949 10.3496 59.4307 10.5297C59.5691 10.7073 59.7323 10.8418 59.9203 10.9332C60.111 11.0246 60.3238 11.0703 60.5588 11.0703C60.8042 11.0703 61.0223 11.0246 61.2129 10.9332C61.4035 10.8418 61.5641 10.7073 61.6947 10.5297C61.8279 10.3496 61.9284 10.1289 61.9963 9.86778C62.0642 9.60405 62.0981 9.30114 62.0981 8.95907ZM68.1244 5.92742V11.6304H67.3646L64.4935 7.23173V11.6304H63.7376V5.92742H64.4935L67.3763 10.3378V5.92742H68.1244Z" fill="#222222"/>
<rect x="0.575535" y="0.445652" width="114.978" height="34.7609" rx="4.90217" stroke="#222222" stroke-width="0.891304"/>
<defs>
<linearGradient id="paint0_linear_1691_110785" x1="27.0125" y1="18.0007" x2="19.7031" y2="18.0007" gradientUnits="userSpaceOnUse">
<stop stop-color="#FFBC00"/>
<stop offset="1" stop-color="#FFDA03"/>
</linearGradient>
<linearGradient id="paint1_linear_1691_110785" x1="21.4201" y1="21.5392" x2="11.88" y2="29.4028" gradientUnits="userSpaceOnUse">
<stop stop-color="#E22652"/>
<stop offset="1" stop-color="#FF3A44"/>
</linearGradient>
<linearGradient id="paint2_linear_1691_110785" x1="10.2842" y1="8.23723" x2="16.6448" y2="13.8301" gradientUnits="userSpaceOnUse">
<stop stop-color="#0ED574"/>
<stop offset="1" stop-color="#07F076"/>
</linearGradient>
</defs>
</svg>
